<?xml version="1.0" encoding="utf-8"?>
<!-- Generator: Adobe Illustrator 19.0.0, SVG Export Plug-In . SVG Version: 6.00 Build 0)  -->
<svg version="1.1" id="Layer_1" xmlns="http://www.w3.org/2000/svg" xmlns:xlink="http://www.w3.org/1999/xlink" x="0px" y="0px"
	 viewBox="-429 218 100 125" style="enable-background:new -429 218 100 125;" xml:space="preserve">
<g>
	<path d="M-358.1,277.6l-6.9-22.7c-0.1-0.3-0.1-0.4-0.3-0.7c-1.5-4.7-6-8.1-11.2-8.1h-8c-5.7,0-10.6,4.1-11.6,9.5l-6.4,20.8
		c-0.5,1.8,0.4,3.5,2.2,4.1c1.8,0.5,3.5-0.4,4.1-2.2l4.9-16.1h1.9l-10,33.7h10.3V323c0,2.2,1.8,3.8,3.8,3.8c2.2,0,3.8-1.8,3.8-3.8
		v-27.1h2.7V323c0,2.2,1.8,3.8,3.8,3.8c2.2,0,3.8-1.8,3.8-3.8v-27.1h10.3l-10-33.7h1.6l5.3,17.3c0.5,1.8,2.3,2.7,4.1,2.2
		C-358.5,281.1-357.6,279.4-358.1,277.6z M-380.3,245.3c4.3,0,7.9-3.5,7.9-7.8c0-4.3-3.5-7.9-7.9-7.9c-4.3,0-7.9,3.5-7.9,7.9
		C-388.2,241.8-384.7,245.3-380.3,245.3z"/>
</g>
</svg>
